<svg width="159" height="36" viewBox="0 0 159 36" fill="none" xmlns="http://www.w3.org/2000/svg">
<g clip-path="url(#clip0)">
<path d="M19.2441 2.88536C23.2124 1.22666 61.0698 -8.52636 68.0363 42.7274C54.1192 23.4015 9.77537 4.37069 2.2678 17.1332C0.903984 12.9338 3.25442 7.1171 15.6872 4.52054C17.3879 4.28244 15.2757 4.54406 19.2441 2.88536Z" fill="#A20000"/>
<path d="M19.3523 5.96666C18.6471 6.61627 17.9735 6.51686 18.1384 7.42254C19.0827 7.92758 19.671 7.56627 20.7289 7.68527C24.1042 6.64298 28.3086 4.56296 28.3086 4.56296C28.3086 4.56296 23.0827 5.0646 19.3523 5.96666Z" fill="white"/>
<path d="M25.856 12.644C27.144 11.608 28.845 11.09 30.959 11.09C33.073 11.09 34.767 11.615 36.041 12.665C37.329 13.701 37.973 15.164 37.973 17.054V20.33C37.973 22.248 37.336 23.711 36.062 24.719C34.802 25.713 33.101 26.21 30.959 26.21C28.817 26.21 27.109 25.713 25.835 24.719C24.575 23.711 23.945 22.248 23.945 20.33V17.054C23.945 15.15 24.582 13.68 25.856 12.644ZM29.825 21.695C30.105 21.975 30.483 22.115 30.959 22.115C31.435 22.115 31.813 21.975 32.093 21.695C32.373 21.415 32.513 20.988 32.513 20.414V16.886C32.513 16.326 32.373 15.906 32.093 15.626C31.813 15.332 31.435 15.185 30.959 15.185C30.483 15.185 30.105 15.332 29.825 15.626C29.545 15.906 29.405 16.326 29.405 16.886V20.414C29.405 20.988 29.545 21.415 29.825 21.695ZM44.5631 15.647V16.382C45.5431 15.514 46.6351 15.08 47.8391 15.08H48.8471C49.0011 15.08 49.1341 15.136 49.2461 15.248C49.3581 15.36 49.4141 15.493 49.4141 15.647V18.923C49.4141 19.077 49.3581 19.21 49.2461 19.322C49.1341 19.434 49.0011 19.49 48.8471 19.49H46.1381C45.7601 19.49 45.4591 19.581 45.2351 19.763C45.0251 19.931 44.9061 20.162 44.8781 20.456V25.433C44.8781 25.587 44.8221 25.72 44.7101 25.832C44.5981 25.944 44.4651 26 44.3111 26H40.3211C40.1671 26 40.0341 25.944 39.9221 25.832C39.8101 25.72 39.7541 25.587 39.7541 25.433V15.647C39.7541 15.493 39.8101 15.36 39.9221 15.248C40.0341 15.136 40.1671 15.08 40.3211 15.08H43.9961C44.1501 15.08 44.2831 15.136 44.3951 15.248C44.5071 15.36 44.5631 15.493 44.5631 15.647ZM50.7848 21.359V19.7C50.7848 18.132 51.2048 16.935 52.0448 16.109C52.8848 15.283 53.9068 14.87 55.1108 14.87C56.3288 14.87 57.3018 15.199 58.0298 15.857V11.657C58.0298 11.503 58.0858 11.37 58.1978 11.258C58.3098 11.146 58.4428 11.09 58.5968 11.09H62.4818C62.6358 11.09 62.7688 11.146 62.8808 11.258C62.9928 11.37 63.0488 11.503 63.0488 11.657V25.433C63.0488 25.587 62.9928 25.72 62.8808 25.832C62.7688 25.944 62.6358 26 62.4818 26H58.9118C58.7578 26 58.6248 25.944 58.5128 25.832C58.4008 25.72 58.3448 25.587 58.3448 25.433V24.803C57.6168 25.741 56.5878 26.21 55.2578 26.21C53.9278 26.21 52.8498 25.818 52.0238 25.034C51.1978 24.236 50.7848 23.011 50.7848 21.359ZM58.0298 21.233V19.679C57.9878 18.979 57.6378 18.629 56.9798 18.629C56.2798 18.629 55.9298 19.035 55.9298 19.847V21.233C55.9298 22.045 56.2798 22.451 56.9798 22.451C57.6798 22.451 58.0298 22.045 58.0298 21.233ZM76.2357 21.779H69.9777V21.884C69.9777 22.738 70.2507 23.165 70.7967 23.165C70.9507 23.165 71.1397 23.053 71.3637 22.829C71.5877 22.605 71.8327 22.493 72.0987 22.493H76.0677C76.3757 22.493 76.5297 22.647 76.5297 22.955C76.5297 23.641 76.0117 24.355 74.9757 25.097C73.9537 25.839 72.5607 26.21 70.7967 26.21C69.0467 26.21 67.6117 25.755 66.4917 24.845C65.3857 23.921 64.8327 22.654 64.8327 21.044V20.036C64.8327 18.51 65.3997 17.271 66.5337 16.319C67.6677 15.353 69.1517 14.87 70.9857 14.87C72.8337 14.87 74.2617 15.409 75.2697 16.487C76.2917 17.565 76.8027 18.93 76.8027 20.582V21.212C76.8027 21.366 76.7467 21.499 76.6347 21.611C76.5227 21.723 76.3897 21.779 76.2357 21.779ZM71.6577 19.07C71.6577 18.23 71.3777 17.81 70.8177 17.81C70.2577 17.81 69.9777 18.23 69.9777 19.07V19.154H71.6577V19.07ZM83.1793 15.647V16.382C84.1593 15.514 85.2513 15.08 86.4553 15.08H87.4633C87.6173 15.08 87.7503 15.136 87.8623 15.248C87.9743 15.36 88.0303 15.493 88.0303 15.647V18.923C88.0303 19.077 87.9743 19.21 87.8623 19.322C87.7503 19.434 87.6173 19.49 87.4633 19.49H84.7543C84.3763 19.49 84.0753 19.581 83.8513 19.763C83.6413 19.931 83.5223 20.162 83.4943 20.456V25.433C83.4943 25.587 83.4383 25.72 83.3263 25.832C83.2143 25.944 83.0813 26 82.9273 26H78.9373C78.7833 26 78.6503 25.944 78.5383 25.832C78.4263 25.72 78.3703 25.587 78.3703 25.433V15.647C78.3703 15.493 78.4263 15.36 78.5383 15.248C78.6503 15.136 78.7833 15.08 78.9373 15.08H82.6123C82.7663 15.08 82.8993 15.136 83.0113 15.248C83.1233 15.36 83.1793 15.493 83.1793 15.647ZM89.863 11.3H102.169C102.323 11.3 102.456 11.356 102.568 11.468C102.68 11.58 102.736 11.713 102.736 11.867V15.248C102.736 15.402 102.68 15.535 102.568 15.647C102.456 15.759 102.323 15.815 102.169 15.815H98.683V25.433C98.683 25.587 98.627 25.72 98.515 25.832C98.403 25.944 98.27 26 98.116 26H93.916C93.762 26 93.629 25.944 93.517 25.832C93.405 25.72 93.349 25.587 93.349 25.433V15.815H89.863C89.709 15.815 89.576 15.759 89.464 15.647C89.352 15.535 89.296 15.402 89.296 15.248V11.867C89.296 11.713 89.352 11.58 89.464 11.468C89.576 11.356 89.709 11.3 89.863 11.3ZM104.105 22.871C104.105 20.981 105.638 19.77 108.704 19.238L110.93 18.881C110.93 18.461 110.895 18.181 110.825 18.041C110.755 17.887 110.587 17.81 110.321 17.81C110.069 17.81 109.817 17.922 109.565 18.146C109.313 18.37 109.075 18.482 108.851 18.482H105.281C104.973 18.482 104.819 18.335 104.819 18.041C104.819 17.733 104.924 17.411 105.134 17.075C105.358 16.725 105.673 16.382 106.079 16.046C106.499 15.71 107.08 15.43 107.822 15.206C108.578 14.982 109.418 14.87 110.342 14.87C112.218 14.87 113.625 15.262 114.563 16.046C115.501 16.83 115.97 17.95 115.97 19.406V25.433C115.97 25.587 115.914 25.72 115.802 25.832C115.69 25.944 115.557 26 115.403 26H111.728C111.574 26 111.441 25.944 111.329 25.832C111.217 25.72 111.161 25.587 111.161 25.433V24.845C110.503 25.755 109.544 26.21 108.284 26.21C107.024 26.21 106.009 25.895 105.239 25.265C104.483 24.621 104.105 23.823 104.105 22.871ZM109.628 23.102C110.538 23.102 110.993 22.556 110.993 21.464L109.754 21.737C109.138 21.877 108.83 22.136 108.83 22.514C108.83 22.682 108.9 22.822 109.04 22.934C109.18 23.046 109.376 23.102 109.628 23.102ZM122.764 11.657V18.461L124.612 15.437C124.752 15.199 124.955 15.08 125.221 15.08H129.463C129.603 15.08 129.722 15.129 129.82 15.227C129.918 15.325 129.967 15.437 129.967 15.563C129.967 15.689 129.932 15.801 129.862 15.899L126.985 19.994L130.387 25.223C130.443 25.307 130.471 25.412 130.471 25.538C130.471 25.65 130.422 25.755 130.324 25.853C130.226 25.951 130.107 26 129.967 26H125.557C125.277 26 125.06 25.881 124.906 25.643L122.764 22.073V25.433C122.764 25.587 122.708 25.72 122.596 25.832C122.484 25.944 122.351 26 122.197 26H118.522C118.368 26 118.235 25.944 118.123 25.832C118.011 25.72 117.955 25.587 117.955 25.433V11.657C117.955 11.503 118.011 11.37 118.123 11.258C118.235 11.146 118.368 11.09 118.522 11.09H122.197C122.351 11.09 122.484 11.146 122.596 11.258C122.708 11.37 122.764 11.503 122.764 11.657ZM142.825 21.779H136.567V21.884C136.567 22.738 136.84 23.165 137.386 23.165C137.54 23.165 137.729 23.053 137.953 22.829C138.177 22.605 138.422 22.493 138.688 22.493H142.657C142.965 22.493 143.119 22.647 143.119 22.955C143.119 23.641 142.601 24.355 141.565 25.097C140.543 25.839 139.15 26.21 137.386 26.21C135.636 26.21 134.201 25.755 133.081 24.845C131.975 23.921 131.422 22.654 131.422 21.044V20.036C131.422 18.51 131.989 17.271 133.123 16.319C134.257 15.353 135.741 14.87 137.575 14.87C139.423 14.87 140.851 15.409 141.859 16.487C142.881 17.565 143.392 18.93 143.392 20.582V21.212C143.392 21.366 143.336 21.499 143.224 21.611C143.112 21.723 142.979 21.779 142.825 21.779ZM138.247 19.07C138.247 18.23 137.967 17.81 137.407 17.81C136.847 17.81 136.567 18.23 136.567 19.07V19.154H138.247V19.07ZM149.768 15.647V16.382C150.748 15.514 151.84 15.08 153.044 15.08H154.052C154.206 15.08 154.339 15.136 154.451 15.248C154.563 15.36 154.619 15.493 154.619 15.647V18.923C154.619 19.077 154.563 19.21 154.451 19.322C154.339 19.434 154.206 19.49 154.052 19.49H151.343C150.965 19.49 150.664 19.581 150.44 19.763C150.23 19.931 150.111 20.162 150.083 20.456V25.433C150.083 25.587 150.027 25.72 149.915 25.832C149.803 25.944 149.67 26 149.516 26H145.526C145.372 26 145.239 25.944 145.127 25.832C145.015 25.72 144.959 25.587 144.959 25.433V15.647C144.959 15.493 145.015 15.36 145.127 15.248C145.239 15.136 145.372 15.08 145.526 15.08H149.201C149.355 15.08 149.488 15.136 149.6 15.248C149.712 15.36 149.768 15.493 149.768 15.647Z" fill="white"/>
</g>
<defs>
<clipPath id="clip0">
<rect width="159" height="36" fill="white"/>
</clipPath>
</defs>
</svg>
